<svg width="2881" height="330" viewBox="0 0 2881 330" fill="none" xmlns="http://www.w3.org/2000/svg">
<path d="M60 215.02L0 243.687V329.687H60H360H720H1080H1380H2307H2764.5H2881V243.687L2764.5 215.02L2417.5 132.187L2364.62 117.687L2327.75 112.187H2302.5L2265.5 120.187L2208.5 135.187C2208.5 135.187 2031 211.02 1948 211.019C1865 211.019 1504.2 -2.38142 1380 0.0201186C1255.8 2.42166 1200 43.0201 1080 93.1868C960 143.353 840 215.02 720 215.02C600 215.02 480 143.353 360 136.187C240 129.02 120 186.353 60 215.02Z" fill="#FDC435"/>
</svg>
